<?xml version="1.0" encoding="utf-8"?>
<!-- Generator: Adobe Illustrator 27.3.1, SVG Export Plug-In . SVG Version: 6.00 Build 0)  -->
<svg version="1.1" id="Layer_1" xmlns="http://www.w3.org/2000/svg" xmlns:xlink="http://www.w3.org/1999/xlink" x="0px" y="0px"
	 viewBox="0 0 32 32" style="enable-background:new 0 0 32 32;" xml:space="preserve">
<style type="text/css">
	.st0{fill:#17B8AD;}
</style>
<path class="st0" d="M6.7,4h18.7C26.8,4,28,5.2,28,6.7v18.7c0,1.5-1.2,2.7-2.7,2.7h-5.9C19,27.9,19,27.1,19,26.8v-3.3
	c0-1.1-0.4-1.9-0.8-2.2c2.7-0.3,5.5-1.3,5.5-5.9c0-1.3-0.5-2.4-1.2-3.2c0.1-0.3,0.5-1.5-0.1-3.2c0,0-1-0.3-3.3,1.2
	c-1-0.3-2-0.4-3-0.4c-1,0-2.1,0.1-3,0.4C10.7,8.7,9.7,9,9.7,9c-0.6,1.6-0.2,2.9-0.1,3.2c-0.8,0.8-1.2,1.9-1.2,3.2
	c0,4.6,2.8,5.6,5.5,6c-0.4,0.3-0.6,0.8-0.8,1.6c-0.7,0.3-2.4,0.8-3.5-1c0,0-0.6-1.1-1.8-1.2c0,0-1.2,0-0.1,0.7c0,0,0.8,0.4,1.3,1.8
	c0,0,0.7,2.3,4,1.6v2c0,0.3,0,1.1-0.4,1.2H6.7C5.2,28,4,26.8,4,25.3V6.7C4,5.2,5.2,4,6.7,4L6.7,4z"/>
</svg>
