<?xml version="1.0" encoding="utf-8"?>
<!-- Generator: Adobe Illustrator 27.3.1, SVG Export Plug-In . SVG Version: 6.00 Build 0)  -->
<svg version="1.1" id="Layer_1" xmlns="http://www.w3.org/2000/svg" xmlns:xlink="http://www.w3.org/1999/xlink" x="0px" y="0px"
	 viewBox="0 0 32 32" style="enable-background:new 0 0 32 32;" xml:space="preserve">
<style type="text/css">
	.st0{fill:#17B8AD;}
</style>
<path class="st0" d="M16,12c-2.2,0-4,1.8-4,4s1.8,4,4,4s4-1.8,4-4S18.2,12,16,12z M16,9.3c3.7,0,6.7,3,6.7,6.7s-3,6.7-6.7,6.7
	s-6.7-3-6.7-6.7S12.3,9.3,16,9.3z M24.7,9c0,0.9-0.8,1.7-1.7,1.7S21.3,9.9,21.3,9s0.8-1.7,1.7-1.7S24.7,8.1,24.7,9z M16,5.3
	c-3.3,0-3.8,0-5.4,0.1C9.6,5.5,8.9,5.6,8.2,5.8C7.7,6,7.2,6.4,6.8,6.8C6.4,7.2,6,7.7,5.8,8.2c-0.2,0.6-0.4,1.4-0.4,2.4
	c-0.1,1.5-0.1,2-0.1,5.4s0,3.8,0.1,5.4c0.1,1,0.2,1.8,0.4,2.4c0.2,0.6,0.5,1,0.9,1.4c0.4,0.5,0.9,0.7,1.4,0.9
	c0.7,0.2,1.4,0.4,2.4,0.4c1.5,0.1,2,0.1,5.4,0.1s3.8,0,5.4-0.1c1,0,1.8-0.2,2.4-0.4c0.5-0.2,1-0.5,1.4-0.9c0.5-0.5,0.7-0.9,0.9-1.4
	c0.2-0.7,0.4-1.4,0.4-2.4c0.1-1.5,0.1-2,0.1-5.4s0-3.8-0.1-5.4c0-1-0.2-1.8-0.4-2.4c-0.2-0.5-0.5-1-0.9-1.4
	c-0.4-0.4-0.9-0.7-1.4-0.9c-0.6-0.2-1.4-0.4-2.4-0.4C19.9,5.3,19.4,5.3,16,5.3z M16,2.7c3.6,0,4.1,0,5.5,0.1
	c1.4,0.1,2.4,0.3,3.2,0.6c0.9,0.3,1.6,0.8,2.4,1.5c0.7,0.7,1.2,1.5,1.5,2.4c0.3,0.9,0.5,1.8,0.6,3.2c0.1,1.4,0.1,1.9,0.1,5.5
	s0,4.1-0.1,5.5c-0.1,1.4-0.3,2.4-0.6,3.2c-0.3,0.9-0.9,1.7-1.5,2.4c-0.7,0.7-1.5,1.2-2.4,1.5c-0.9,0.3-1.8,0.5-3.2,0.6
	c-1.4,0.1-1.9,0.1-5.5,0.1s-4.1,0-5.5-0.1c-1.4-0.1-2.4-0.3-3.2-0.6c-0.9-0.3-1.7-0.9-2.4-1.5c-0.7-0.7-1.2-1.5-1.5-2.4
	c-0.3-0.9-0.5-1.8-0.6-3.2c-0.1-1.4-0.1-1.9-0.1-5.5s0-4.1,0.1-5.5C2.8,9.1,3,8.1,3.4,7.3c0.3-0.9,0.9-1.7,1.5-2.4
	c0.7-0.7,1.5-1.2,2.4-1.5C8.1,3,9.1,2.8,10.5,2.7C11.9,2.7,12.4,2.7,16,2.7z"/>
</svg>
