<?xml version="1.0" encoding="utf-8"?>
<!-- Generator: Adobe Illustrator 27.3.1, SVG Export Plug-In . SVG Version: 6.00 Build 0)  -->
<svg version="1.1" id="Layer_1" xmlns="http://www.w3.org/2000/svg" xmlns:xlink="http://www.w3.org/1999/xlink" x="0px" y="0px"
	 viewBox="0 0 32 32" style="enable-background:new 0 0 32 32;" xml:space="preserve">
<style type="text/css">
	.st0{fill:#17B8AD;}
</style>
<path class="st0" d="M24.5,24.5h-3.5v-5.6c0-1.3,0-3-1.9-3s-2.1,1.4-2.1,2.9v5.7h-3.6V13h3.4v1.6h0c0.5-0.9,1.6-1.9,3.4-1.9
	c3.6,0,4.3,2.4,4.3,5.4L24.5,24.5L24.5,24.5L24.5,24.5z M9.3,11.4c-1.1,0-2.1-0.9-2.1-2.1l0,0c0-1.1,0.9-2.1,2.1-2.1
	s2.1,0.9,2.1,2.1S10.5,11.4,9.3,11.4L9.3,11.4L9.3,11.4z M11.1,24.5H7.6V13h3.6L11.1,24.5L11.1,24.5L11.1,24.5z M26.2,4H5.8
	C4.8,4,4,4.8,4,5.7v20.5c0,1,0.8,1.7,1.8,1.7h20.5c1,0,1.8-0.8,1.8-1.7V5.7C28,4.8,27.2,4,26.2,4L26.2,4L26.2,4z"/>
</svg>
